<?xml version="1.0" standalone="no"?><!DOCTYPE svg PUBLIC "-//W3C//DTD SVG 1.1//EN" "http://www.w3.org/Graphics/SVG/1.1/DTD/svg11.dtd"><svg t="1592359625795" class="icon" viewBox="0 0 1024 1024" version="1.1" xmlns="http://www.w3.org/2000/svg" p-id="20607" xmlns:xlink="http://www.w3.org/1999/xlink" width="200" height="200"><defs><style type="text/css"></style></defs><path d="M469.333333 341.333333l85.333333 0 0-42.666667-85.333333 0L469.333333 341.333333zM256 853.333333l512 0L768 170.666667 256 170.666667 256 853.333333zM298.666667 213.333333l426.666667 0 0 170.666667L298.666667 384 298.666667 213.333333zM298.666667 426.666667l426.666667 0 0 170.666667L298.666667 597.333333 298.666667 426.666667zM298.666667 640l426.666667 0 0 170.666667L298.666667 810.666667 298.666667 640zM469.333333 554.666667l85.333333 0 0-42.666667-85.333333 0L469.333333 554.666667zM469.333333 768l85.333333 0 0-42.666667-85.333333 0L469.333333 768zM810.666667 42.666667 213.333333 42.666667C166.4 42.666667 128 81.066667 128 128l0 768c0 46.933333 38.4 85.333333 85.333333 85.333333l597.333333 0c46.933333 0 85.333333-38.4 85.333333-85.333333L896 128C896 81.066667 857.6 42.666667 810.666667 42.666667zM853.333333 896c0 23.466667-19.2 42.666667-42.666667 42.666667L213.333333 938.666667c-23.466667 0-42.666667-19.2-42.666667-42.666667L170.666667 128c0-23.466667 19.2-42.666667 42.666667-42.666667l597.333333 0c23.466667 0 42.666667 19.2 42.666667 42.666667L853.333333 896z" p-id="20608" fill="#d81e06"></path></svg>