<?xml version="1.0" standalone="no"?><!DOCTYPE svg PUBLIC "-//W3C//DTD SVG 1.1//EN" "http://www.w3.org/Graphics/SVG/1.1/DTD/svg11.dtd"><svg class="icon" width="200px" height="200.00px" viewBox="0 0 1024 1024" version="1.1" xmlns="http://www.w3.org/2000/svg"><path fill="#d81e06" d="M896 85.333333a42.666667 42.666667 0 0 1 42.666667 42.666667v768a42.666667 42.666667 0 0 1-42.666667 42.666667H128a42.666667 42.666667 0 0 1-42.666667-42.666667V128a42.666667 42.666667 0 0 1 42.666667-42.666667h768z m-21.333333 398.442667L531.626667 750.592a32 32 0 0 1-39.893334-0.490667l-2.346666-2.133333-151.68-151.68L149.333333 728.106667V874.666667h725.333334V483.776zM874.666667 149.333333H149.333333v500.650667l173.653334-121.536a32 32 0 0 1 38.698666 1.514667l2.282667 2.069333 150.677333 150.698667L874.666667 402.688V149.333333z m-533.333334 149.333334a42.666667 42.666667 0 1 1 0 85.333333 42.666667 42.666667 0 0 1 0-85.333333z"  /></svg>